<svg width="115" height="115" viewBox="0 0 115 115" fill="none" xmlns="http://www.w3.org/2000/svg">
<circle cx="57.5" cy="57.5" r="57.5" fill="white"/>
<path d="M74.9293 55.9538C75.6237 56.6482 76.0172 57.5895 76.0172 58.5694C76.0172 59.5493 75.6237 60.4906 74.9293 61.185C74.2349 61.8794 73.2936 62.2729 72.3138 62.2729H42.6859C41.7037 62.2729 40.7616 61.8794 40.0672 61.185C39.3728 60.4906 38.9824 59.5493 38.9824 58.5694C38.9824 57.5895 39.3728 56.6482 40.0672 55.9538C40.7616 55.2594 41.7037 54.8659 42.6859 54.8659H72.3138C73.2936 54.8659 74.2349 55.2594 74.9293 55.9538ZM74.4201 65.1045C74.6516 65.336 74.7827 65.6523 74.7827 65.9764V67.2109C74.7827 68.4531 74.2658 69.7802 73.3399 70.706C72.4141 71.6319 71.087 72.1488 69.8448 72.1488H45.1549C43.8456 72.1488 42.5895 71.6319 41.6636 70.706C40.7369 69.7802 40.2169 68.4531 40.2169 67.2109V65.9764C40.2169 65.6523 40.3473 65.336 40.5788 65.1045C40.8102 64.873 41.1243 64.7419 41.4514 64.7419H73.5483C73.8723 64.7419 74.1886 64.873 74.4201 65.1045ZM41.6358 52.15C41.2917 51.9803 40.9908 51.7411 40.7547 51.4402C40.5186 51.1393 40.355 50.7921 40.2748 50.4217C40.1945 50.0437 40.2015 49.6579 40.2933 49.2876C41.99 42.5997 49.0513 37.583 57.4998 37.583C65.9484 37.583 73.0082 42.5997 74.7056 49.2876C74.7982 49.6579 74.8059 50.0437 74.721 50.4217C74.6439 50.7921 74.4818 51.1393 74.2427 51.4402C73.9417 51.7411 73.7103 51.9803 73.3631 52.15C73.0236 52.3121 72.6455 52.3969 72.2598 52.3969H42.7376C42.3564 52.3969 41.9792 52.3121 41.6358 52.15ZM66.5039 44.1181C66.2725 44.3496 66.1413 44.6659 66.1413 44.99C66.1413 45.2369 66.2107 45.4761 66.3496 45.6767C66.4885 45.8773 66.6119 46.0393 66.9051 46.1319C67.1289 46.155 67.3758 46.2476 67.615 46.2013C67.8542 46.155 68.0779 46.0393 68.2476 45.8618C68.4251 45.6921 68.5408 45.4683 68.5871 45.2292C68.6334 44.99 68.5408 44.7431 68.5177 44.5193C68.4251 44.2261 68.2631 44.1027 68.0625 43.9638C67.8619 43.8249 67.6227 43.686 67.3758 43.686C67.0517 43.686 66.7354 43.8866 66.5039 44.1181ZM56.628 41.6484C56.3965 41.8798 56.2653 42.1938 56.2653 42.521C56.2653 42.7648 56.3348 43.0071 56.4737 43.2077C56.6125 43.4083 56.736 43.5703 57.0292 43.6629C57.2529 43.686 57.4998 43.7786 57.739 43.7323C57.9782 43.686 58.202 43.5703 58.3717 43.3928C58.5492 43.2231 58.6649 42.9994 58.7112 42.7617C58.7575 42.5225 58.6649 42.2741 58.6417 42.0488C58.5492 41.8227 58.3871 41.6298 58.1865 41.4948C57.9859 41.359 57.7467 41.2171 57.4998 41.2171C57.1758 41.2171 56.8594 41.4169 56.628 41.6484ZM46.752 44.1181C46.5206 44.3496 46.3894 44.6659 46.3894 44.99C46.3894 45.2369 46.4588 45.4761 46.5977 45.6767C46.7366 45.8773 46.86 46.0393 47.1532 46.1319C47.377 46.155 47.6239 46.2476 47.8631 46.2013C48.1022 46.155 48.326 46.0393 48.4957 45.8618C48.6732 45.6921 48.7889 45.4683 48.8352 45.2292C48.8815 44.99 48.7889 44.7431 48.7658 44.5193C48.6732 44.2261 48.5112 44.1027 48.3106 43.9638C48.11 43.8249 47.8708 43.686 47.6239 43.686C47.2998 43.686 46.9835 43.8866 46.752 44.1181Z" fill="#FFCC00"/>
</svg>
