<svg width="115" height="115" viewBox="0 0 115 115" fill="none" xmlns="http://www.w3.org/2000/svg">
<circle cx="57.5" cy="57.5" r="57.5" fill="white"/>
<path d="M70.0909 50.5H65.1818V44H42.2727C40.4645 44 39 45.4544 39 47.25V65.125H42.2727C42.2727 67.8144 44.4736 70 47.1818 70C49.89 70 52.0909 67.8144 52.0909 65.125H61.9091C61.9091 67.8144 64.11 70 66.8182 70C69.5264 70 71.7273 67.8144 71.7273 65.125H75V57L70.0909 50.5ZM47.1818 67.5625C45.8236 67.5625 44.7273 66.4738 44.7273 65.125C44.7273 63.7763 45.8236 62.6875 47.1818 62.6875C48.54 62.6875 49.6364 63.7763 49.6364 65.125C49.6364 66.4738 48.54 67.5625 47.1818 67.5625ZM69.2727 52.9375L72.4882 57H65.1818V52.9375H69.2727ZM66.8182 67.5625C65.46 67.5625 64.3636 66.4738 64.3636 65.125C64.3636 63.7763 65.46 62.6875 66.8182 62.6875C68.1764 62.6875 69.2727 63.7763 69.2727 65.125C69.2727 66.4738 68.1764 67.5625 66.8182 67.5625Z" fill="#FFCC00"/>
</svg>
